<?xml version="1.0" encoding="UTF-8"?> <svg xmlns="http://www.w3.org/2000/svg" viewBox="0 0 300.00 300.00" data-guides="{&quot;vertical&quot;:[],&quot;horizontal&quot;:[]}"><defs></defs><path fill="#cfb7a5" stroke="none" fill-opacity="1" stroke-width="1" stroke-opacity="1" color="rgb(51, 51, 51)" class="cls-1" id="tSvg13f6547f215" title="Path 1" d="M144.03 103.53C143.63 103.43 143.26 103.29 142.87 103.2C132.74 100.54 122.61 97.88 112.63 95.26C112.28 95.57 112.07 95.67 111.99 95.83C110.47 98.87 108.94 101.91 107.46 104.97C98.87 122.84 90.92 140.97 87.3 160.61C84.69 174.79 85.03 188.55 92.47 201.67C94.73 205.64 95.74 210.79 95.86 215.43C96.22 230.06 91.93 243.85 86.81 257.36C85.14 261.75 81.67 264.74 76.98 265.26C73.08 265.69 69.07 265.1 65.11 265.02C64.43 265.01 63.73 265.27 63.04 265.39C63.55 265.95 64.05 266.53 64.6 267.05C64.8 267.23 65.16 267.25 65.45 267.33C79.07 270.93 92.7 274.52 106.34 278.07C107.4 278.35 108.53 278.34 109.64 278.46C109.76 278.18 109.86 277.9 109.98 277.63C109.44 277.22 108.97 276.7 108.37 276.45C107.09 275.9 105.72 275.57 104.43 275.02C96.23 271.51 91.11 265.59 93.48 255.96C95.91 246.07 98.38 236.17 101.58 226.52C104.62 217.36 110.52 210.31 118.97 205.09C123.35 202.39 127.05 198.25 130.28 194.15C136.23 186.6 139.63 177.66 142.23 168.47C147.44 150.08 149.23 131.18 150.39 112.18C150.6767 107.58 148.55 104.6967 144.03 103.53ZM148.34 109.13C148.09 111.42 148.1 113.73 148 116.03C146.94 130.29 145.85 144.56 142.2 158.47C139.03 170.54 134.8 182.24 126.63 191.9C123.47 195.63 119.52 199.05 115.29 201.47C107.62 205.84 100.16 203.46 95.38 195.96C91.67 190.15 90.25 183.62 89.9 176.86C89.01 160.13 92.86 144.27 99.23 128.98C103.31 119.2 107.97 109.68 112.31 100C113.05 98.36 113.89 97.77 115.73 98.28C125.85 101.03 136 103.73 146.16 106.33C147.81 106.76 148.54 107.35 148.34 109.13ZM235.21 270.08C234.75 270.02 234.25 270.32 233.77 270.41C222.5 272.51 215.24 269.51 211.99 258.22C209.76 250.45 207.6 242.63 205.99 234.71C203.81 223.95 204.37 213.47 210.56 203.77C212.12 201.32 212.91 198.25 213.58 195.36C216.24 183.87 214.93 172.46 212.14 161.21C207.34 141.88 199.05 123.92 190.32 106.13C189.47 104.42 188.42 104.85 187.11 105.19C176.29 108.03 165.48 110.93 154.61 113.58C152.23 114.16 151.9 115.21 152.07 117.29C152.86 126.56 153.28 135.86 154.33 145.09C155.97 159.61 158.39 174 164.16 187.58C168.33 197.38 173.66 206.45 183.09 212.07C190.4 216.43 195.77 222.42 198.49 230.24C201.85 239.93 204.44 249.91 207.02 259.85C207.75 262.66 207.88 265.9 207.28 268.73C205.82 275.63 200.21 278.47 194.21 280.66C193.18 281.03 192.19 281.51 191.18 281.93C191.29 282.32 191.39 282.71 191.51 283.11C192.6 282.97 193.73 282.94 194.8 282.67C206.12 279.78 217.44 276.86 228.75 273.95C231.07 273.35 233.4 272.78 235.69 272.07C236.2 271.91 236.54 271.19 236.95 270.73C236.37 270.49 235.81 270.14 235.21 270.08ZM186.81 208.55C179.24 205 174.31 198.72 170.25 191.73C162.96 179.18 159.12 165.46 157.24 151.2C156.02 142 155.29 132.73 154.34 123.48C154.23 115.96 154.22 115.94 161.49 114.05C169.7 111.91 177.92 109.77 186.16 107.77C187.02 107.56 188.67 107.97 188.97 108.58C197.26 125.55 205.64 142.5 209.31 161.25C211.42 172.01 212.5 182.88 209.45 193.62C208.41 197.3 206.76 200.99 204.58 204.12C200.25 210.35 193.71 211.79 186.82 208.55C186.8167 208.55 186.8133 208.55 186.81 208.55ZM150.2 84.79C146 82.21 142.23 80.17 138.79 77.67C137.2 76.51 135.87 74.62 135.1 72.77C133.94 70.01 134.43 67.22 136.94 65.19C139.15 63.41 142.46 63.36 145.1 64.95C145.68 65.3 146.22 65.72 146.82 66.14C147.64 65.2 148.29 64.32 149.08 63.58C151.45 61.34 155.09 61.07 157.63 62.89C160.17 64.71 161.46 68.97 159.54 72.09C156.86 76.46 153.48 80.4 150.2 84.79ZM147.71 40.5C144.58 39.86 141.82 39.45 139.16 38.68C137.93 38.33 136.7 37.46 135.82 36.51C134.5 35.08 134.18 33.27 135.26 31.47C136.21 29.89 138.23 29.13 140.19 29.52C140.62 29.61 141.04 29.74 141.5 29.86C141.79 29.11 142 28.42 142.31 27.79C143.26 25.89 145.42 24.92 147.38 25.47C149.33 26.02 151.07 28.34 150.59 30.67C149.92 33.93 148.73 37.09 147.71 40.5ZM166.3 26.89C165.27 25.08 164.28 23.55 163.51 21.92C163.15 21.16 163.05 20.19 163.14 19.35C163.27 18.09 164.02 17.15 165.36 16.91C166.54 16.7 167.78 17.35 168.44 18.48C168.58 18.73 168.7 18.99 168.84 19.27C169.33 19.09 169.76 18.89 170.2 18.78C171.54 18.43 172.94 19.07 173.52 20.26C174.09 21.45 173.7 23.3 172.36 24.07C170.48 25.15 168.42 25.92 166.3 26.89ZM169.07 45.46C173.83 42.51 178.15 43.62 178.53 47.88C178.67 49.49 177.93 51.38 177.07 52.83C176.36 54.03 174.98 54.97 173.71 55.7C171.45 57 169.05 58.07 166.71 59.23C163.6 56.04 159.89 53.24 158.83 48.61C158.31 46.34 159.06 44.15 161.24 42.96C163.46 41.75 165.67 42.04 167.57 43.8C168.08 44.27 168.5 44.82 169.07 45.46ZM142.51 134.92C128.92 135.06 115.33 135.17 101.74 135.44C100.92 135.45 99.67 136.57 99.38 137.44C95.06 150 92.3 162.84 93.01 176.22C93.33 182.16 94.45 187.93 97.61 193.11C101.8 199.98 108.62 202.06 115.27 197.62C119.49 194.81 123.47 191.1 126.39 186.97C137.3 171.51 140.93 153.53 143.23 135.22C142.88 135.07 142.69 134.92 142.51 134.92ZM109.48 154.9C109.48 153.62 110.52 152.58 111.8 152.58C113.08 152.58 114.12 153.62 114.12 154.9C114.12 156.18 113.08 157.22 111.8 157.22C110.52 157.22 109.48 156.18 109.48 154.9ZM115.2 169.16C114.2 169.16 113.39 168.36 113.39 167.36C113.39 166.36 114.2 165.56 115.2 165.56C116.2 165.56 117 166.36 117 167.36C117 168.36 116.2 169.16 115.2 169.16ZM124.6 161.49C123.38 161.49 122.38 160.49 122.38 159.27C122.38 158.05 123.38 157.05 124.6 157.05C125.82 157.05 126.82 158.05 126.82 159.27C126.82 160.49 125.82 161.49 124.6 161.49ZM201.11 143.73C200.82 142.94 199.18 142.17 198.18 142.17C185.88 142.22 173.59 142.42 161.28 142.59C160.7 142.59 160.14 142.71 159.27 142.8C159.61 145.41 159.92 147.85 160.24 150.3C161.95 163.48 165.33 176.17 171.64 187.96C175.16 194.54 179.38 200.61 186.08 204.43C193 208.37 199.33 207.04 203.27 200.11C205.39 196.39 206.89 192.02 207.49 187.77C209.65 172.54 206.31 157.96 201.11 143.73ZM176.12 162.95C175.07 162.85 174.3 161.92 174.4 160.87C174.5 159.82 175.43 159.05 176.48 159.15C177.53 159.25 178.3 160.18 178.2 161.23C178.1 162.28 177.17 163.05 176.12 162.95ZM183.66 164.89C182.68 164.8 181.95 163.93 182.03 162.93C182.13 161.95 183 161.22 183.99 161.31C184.99 161.4 185.71 162.27 185.62 163.27C185.53 164.25 184.66 164.98 183.66 164.89ZM189.73 153.99C191.01 154.11 191.95 155.23 191.83 156.52C191.71 157.79 190.58 158.72 189.3 158.61C188.03 158.49 187.08 157.36 187.2 156.08C187.33 154.81 188.45 153.86 189.73 153.99ZM189.63 172.12C188.42 172 187.52 170.92 187.64 169.71C187.75 168.49 188.83 167.59 190.05 167.71C191.26 167.83 192.16 168.9 192.04 170.12C191.93 171.34 190.85 172.23 189.63 172.12Z"></path></svg> 