<?xml version="1.0" encoding="UTF-8"?> <svg xmlns="http://www.w3.org/2000/svg" viewBox="0 0 300.00 300.00" data-guides="{&quot;vertical&quot;:[],&quot;horizontal&quot;:[]}"><defs></defs><path fill="#cfb7a5" stroke="none" fill-opacity="1" stroke-width="1" stroke-opacity="1" color="rgb(51, 51, 51)" class="cls-1" id="tSvgd2773a8bbb" title="Path 2" d="M212.92 252.05C198.8133 252.05 184.7067 252.05 170.6 252.05C170.57 251.39 170.51 250.78 170.51 250.17C170.51 238.17 170.55 226.16 170.49 214.16C170.45 204.51 163.79 196.32 154.5 194.32C144.93 192.26 135.43 196.91 131.33 205.67C129.98 208.56 129.45 211.61 129.45 214.79C129.48 226.53 129.46 238.26 129.46 250C129.46 250.63 129.46 251.25 129.46 252C115.3567 252 101.2533 252 87.15 252C87.13 251.47 87.08 250.9 87.08 250.34C87.08 221.87 87.08 193.41 87.07 164.94C87.07 163.95 87.2 163.19 88.07 162.46C108.45 145.61 128.79 128.72 149.14 111.83C149.38 111.63 149.64 111.45 149.99 111.18C150.53 111.62 151.06 112.03 151.58 112.47C171.6 129.08 191.62 145.7 211.67 162.28C212.58 163.03 212.93 163.78 212.93 164.96C212.9 193.43 212.9 221.89 212.9 250.36C212.9 250.88 212.9 251.4 212.9 252.04C212.9067 252.0433 212.9133 252.0467 212.92 252.05ZM149.99 103.25C176.43 125.04 202.79 146.76 229.2 168.52C233.11 163.77 236.91 159.16 240.73 154.52C240.25 154.1 239.93 153.82 239.61 153.56C213.39 131.95 187.16 110.34 160.94 88.73C159.22 87.31 156.88 86.18 156 84.35C155.13 82.52 155.74 79.99 155.7 77.76C155.7 77.44 155.7 77.12 155.7 76.8C155.7 74.53 155.7 72.26 155.7 69.99C160.74 69.99 165.78 69.99 170.82 69.99C170.82 66.18 170.82 62.37 170.82 58.56C165.7733 58.56 160.7267 58.56 155.68 58.56C155.68 54.9633 155.68 51.3667 155.68 47.77C151.85 47.77 148.02 47.77 144.19 47.77C144.19 51.4067 144.19 55.0433 144.19 58.68C139.1833 58.68 134.1767 58.68 129.17 58.68C129.17 62.4867 129.17 66.2933 129.17 70.1C134.2033 70.1 139.2367 70.1 144.27 70.1C144.27 74.74 144.31 79.19 144.22 83.65C144.21 84.2 143.67 84.87 143.19 85.26C116.82 107.02 90.43 128.76 64.04 150.51C62.45 151.82 60.87 153.14 59.23 154.51C63.1 159.2 66.87 163.78 70.77 168.51C97.22 146.72 123.55 125.02 149.97 103.24C149.9767 103.2433 149.9833 103.2467 149.99 103.25ZM81.51 252.24C81.51 229.7333 81.51 207.2267 81.51 184.72C81.09 184.93 80.81 185.06 80.55 185.21C67.46 192.79 54.38 200.38 41.28 207.92C40.29 208.49 40.23 209.21 40.23 210.14C40.24 223.63 40.23 237.12 40.23 250.61C40.23 251.13 40.28 251.64 40.31 252.24C54.0433 252.24 67.7767 252.24 81.51 252.24ZM218.51 252.21C232.2267 252.21 245.9433 252.21 259.66 252.21C259.69 251.83 259.74 251.57 259.74 251.31C259.74 237.45 259.73 223.58 259.78 209.72C259.78 208.55 259.11 208.18 258.32 207.73C246.88 201.12 235.43 194.51 223.99 187.9C222.21 186.87 220.43 185.85 218.51 184.74C218.51 207.23 218.51 229.72 218.51 252.21Z"></path></svg> 